<svg viewBox="-614.3 -2.1 2319 2131.9" xmlns="http://www.w3.org/2000/svg">
<path fill="none" stroke="green" strokeWidth="1px" label="Station:0.2" d="M 468.1696498054475 225L 449.6 205.6L 424.9 179.4L 400 152.79999999999998L 375.09999999999997 125.6L 283.7 109.60000000000001L 191 93.39999999999999L 127.2 82.3L 96.4 77.3L 0 61.800000000000004L -96.4 77.3L -127.2 82.3L -191 93.39999999999999L -283.7 109.60000000000001L -375.09999999999997 125.6L -400 152.79999999999998L -424.9 179.4L -449.6 205.6L -468.16964980544753 225L 468.1696498054475 225 Z"/>
<path fill="none" stroke="green" strokeWidth="1px" label="Station:1.2" d="M -609.5673343605547 353.8L -614.3 353.8L -599.1999999999999 305.09999999999997L -584.2 256.40000000000003L -569.3000000000001 207.7L -554.6 159L -520 131L -485.3 103.1L -461.5 83.9L -450.6 75.39999999999999L -415.5 48.099999999999994L -309.59999999999997 36.6L -205.1 24.400000000000002L -101.9 11.5L 0 -2.1L 101.9 11.5L 205.1 24.400000000000002L 309.59999999999997 36.6L 415.5 48.099999999999994L 450.6 75.39999999999999L 461.5 83.9L 485.3 103.1L 520 131L 554.6 159L 569.3000000000001 207.7L 584.2 256.40000000000003L 599.1999999999999 305.09999999999997L 614.3 353.8L 609.5673343605545 353.8L 494.8560956640093 329.5618121718841L 494.8560956640093 329.5618121718841L 414.29999999999995 225L -414.29999999999995 225L -494.8560956640093 329.5618121718841L -609.5673343605547 353.8 Z"/>
<path fill="none" stroke="green" strokeWidth="1px" label="Station:1.4" d="M 546.1453781512605 225L 544 217.6L 543.8 217L 529.8000000000001 170.5L 494.40000000000003 144.1L 459 117.9L 423.70000000000005 91.7L 388.40000000000003 65.60000000000001L 288.8 51.1L 191 35.8L 94.7 19.8L 0 3L -94.7 19.8L -191 35.8L -288.8 51.1L -388.40000000000003 65.60000000000001L -423.70000000000005 91.7L -459 117.9L -494.40000000000003 144.1L -529.8000000000001 170.5L -543.8 217L -544 217.6L -546.1453781512605 225L 546.1453781512605 225 Z"/>
<path fill="none" stroke="green" strokeWidth="1px" label="Station:1.95" d="M 309.1906666666667 225L 290.5 212.10000000000002L 258.40000000000003 189.6L 226.70000000000002 167.3L 200 158.70000000000002L 165.6 147.79999999999998L 107.5 128.6L 52.3 109.60000000000001L 0 90.6L -52.3 109.60000000000001L -107.5 128.6L -165.6 147.79999999999998L -200 158.70000000000002L -226.70000000000002 167.3L -258.40000000000003 189.6L -290.5 212.10000000000002L -309.1906666666667 225L 309.1906666666667 225 Z"/>
<path fill="none" stroke="red" strokeWidth="1px" label="Layer 0 (P)" d="M 1671 3L 1834 5L 1995 7L 2156 9L 2316 12L 2316 41L 2317 71L 2318 100L 2319 129L 2174 146L 2028 163L 1879 178L 1724 190L 1560 198L 1392 203L 1223 205L 1057 204L 901 201L 753 196L 615 190L 486 182L 366 174L 252 166L 141 159L 31 154L 24 123L 16 92L 8 61L 0 30L 106 25L 214 20L 326 16L 445 12L 573 9L 710 5L 856 3L 1008.9999999999999 1L 1171 0L 1337 0L 1505 1L 1671 3 Z"/>
<path fill="none" stroke="red" strokeWidth="1px" label="Layer 2 (SB)" d="M 824 404L 985 422L 1156 435L 1331 442L 1502 442L 1663 434L 1808 418L 1942 395L 2070 367L 2195 338L 2193 258L 2192 177L 2190 97L 2189 16L 2093 11L 1992 7L 1881 3L 1752 1L 1598 0L 1428 0L 1250 0L 1074 1L 907 2L 752 2L 608 4L 478 7L 362 11L 254 18L 153 25L 55 34L 42 71L 29 109L 15 146L 0 183L 96 220L 194 257L 298 293L 411 327L 537 356L 675 382L 824 404 Z"/>
<path fill="none" stroke="red" strokeWidth="1px" label="Layer 2 (P)" d="M 824 38L 985 21L 1156 7L 1331 0L 1502 0L 1663 8L 1808 25L 1942 48L 2070 75L 2195 104L 2193 185L 2192 265L 2190 346L 2189 426L 2093 431L 1992 436L 1881 439L 1752 441L 1598 442L 1428 442L 1250 442L 1074 441L 907 441L 752 440L 608 438L 478 436L 362 431L 254 425L 153 417L 55 409L 42 371L 29 333L 15 296L 0 260L 96 222L 194 185L 298 149L 411 116L 537 86L 675 60L 824 38 Z"/>
<path fill="none" stroke="red" strokeWidth="1px" label="Layer 5 part 1" d="M 0 0L 10 28L 30 83L 40 110L 63 130L 109 169L 133 188L 291 217L 450 245L 688 203L 767 189L 814 150L 860 111L 900 1L 562 0 Z"/>
<path fill="none" stroke="red" strokeWidth="1px" label="Layer 7 (SB)" d="M 1384 176L 1222 181L 1051 189L 876 198L 706 207L 545 216L 399 222L 263 226L 132 229L 4 232L 3 201L 2 171L 1 141L 0 110L 145 91L 290 73L 439 55L 594 39L 757 26L 925 15L 1094 7L 1259 2L 1416 0L 1564 1L 1702 6L 1830 16L 1950 31L 2063 50L 2172 72L 2279 95L 2269 128L 2259 161L 2248 193L 2238 226L 2136 212L 2032 199L 1922 188L 1805 180L 1676 175L 1535 174L 1384 176 Z"/>
<path fill="none" stroke="red" strokeWidth="1px" label="Layer 7 (P)" d="M 1384 55L 1222 50L 1051 43L 876 34L 706 24L 545 16L 399 10L 263 5L 132 3L 4 0L 3 30L 2 61L 1 91L 0 121L 145 140L 290 159L 439 177L 594 193L 757 206L 925 217L 1094 224L 1259 229L 1416 232L 1564 231L 1702 226L 1830 216L 1950 201L 2063 182L 2172 160L 2279 137L 2269 104L 2259 71L 2248 39L 2238 6L 2136 20L 2032 33L 1922 44L 1805 52L 1676 57L 1535 58L 1384 55 Z"/>
<path fill="none" stroke="red" strokeWidth="1px" label="Layer 0 (SB)" d="M 1671 202L 1834 200L 1995 198L 2156 195L 2316 193L 2316 163L 2317 134L 2318 105L 2319 76L 2174 58L 2028 41L 1879 27L 1724 15L 1560 7L 1392 2L 1223 0L 1057 1L 901 4L 753 8L 615 15L 486 23L 366 31L 252 39L 141 46L 31 51L 24 82L 16 113L 8 144L 0 174L 106 180L 214 185L 326 189L 445 193L 573 196L 710 199L 856 202L 1008.9999999999999 204L 1171 205L 1337 205L 1505 204L 1671 202 Z"/>
<path fill="none" stroke="red" strokeWidth="1px" label="Layer 5 part 2" d="M 0 315L 529 316L 517 286L 481 198L 417 118L 395 91L 363 68L 265 0L 135 90L 113 117L 49 197L 24 256L 12 285 Z"/>
<path fill="none" stroke="orange" strokeWidth="1px" label="undefined" d="M 470.8909365558912 206.00000000000003L 432.7 131.20000000000002L 425.3 118.5L 375.59999999999997 37.3L 350.8 0L 275.2 0L 195.1 0L 101.7 0L 0 0L -101.7 0L -195.1 0L -275.2 0L -350.8 0L -375.59999999999997 37.3L -425.3 118.5L -432.7 131.20000000000002L -470.8909365558912 206.00000000000003L 470.8909365558912 206.00000000000003 Z"/>
<path fill="none" stroke="black" strokeWidth="1px" label="undefined" d="M 349.6337037037037 1200L -374.63370370370376 1200L -374.63370370370376 1200L -374.6337037037037 1206L -574.0151851851853 1206L -569.5 1249.8L -545.8 1401.8L -544.8935593220339 1406L 544.8935593220339 1406L 544.8935593220339 1406L 545.8 1401.8L 569.5 1249.8L 574.0151851851853 1206L 349.6337037037037 1206L 349.6337037037037 1200 Z"/>
<path fill="none" stroke="orange" strokeWidth="1px" label="undefined" d="M 314.80157480314966 1944L 285 1977.2L 266.29999999999995 1995.6000000000001L 205.7 2056.9L 195.89999999999998 2066.3999999999996L 130.70000000000002 2131.1L 129.89999999999998 2131.8L 109.39999999999999 2131.8L 81.8 2131.8L 45.699999999999996 2131.9L 31.099999999999998 2131.9L 0 2131.9L 0 2131.9L -31.099999999999998 2131.9L -45.699999999999996 2131.9L -81.8 2131.8L -109.39999999999999 2131.8L -129.89999999999998 2131.8L -130.70000000000002 2131.1L -195.89999999999998 2066.3999999999996L -205.7 2056.9L -266.29999999999995 1995.6000000000001L -285 1977.2L -314.80157480314966 1944L 314.80157480314966 1944 Z"/>
</svg>
