<?xml version="1.0" encoding="UTF-8" standalone="no"?>
<svg
   xmlns:dc="http://purl.org/dc/elements/1.1/"
   xmlns:cc="http://creativecommons.org/ns#"
   xmlns:rdf="http://www.w3.org/1999/02/22-rdf-syntax-ns#"
   xmlns:svg="http://www.w3.org/2000/svg"
   xmlns="http://www.w3.org/2000/svg"
   xmlns:sodipodi="http://sodipodi.sourceforge.net/DTD/sodipodi-0.dtd"
   xmlns:inkscape="http://www.inkscape.org/namespaces/inkscape"
   viewBox="-614.3 -2.1 2397 3600.0002"
   version="1.1"
   id="svg5723"
   sodipodi:docname="design.svg"
   inkscape:version="0.92.4 5da689c313, 2019-01-14"
   width="2397"
   height="3600">
  <metadata
     id="metadata5729">
    <rdf:RDF>
      <cc:Work
         rdf:about="">
        <dc:format>image/svg+xml</dc:format>
        <dc:type
           rdf:resource="http://purl.org/dc/dcmitype/StillImage" />
        <dc:title></dc:title>
      </cc:Work>
    </rdf:RDF>
  </metadata>
  <defs
     id="defs5727" />
  <sodipodi:namedview
     pagecolor="#ffffff"
     bordercolor="#666666"
     borderopacity="1"
     objecttolerance="10"
     gridtolerance="10"
     guidetolerance="10"
     inkscape:pageopacity="0"
     inkscape:pageshadow="2"
     inkscape:window-width="1278"
     inkscape:window-height="758"
     id="namedview5725"
     showgrid="false"
     inkscape:snap-global="true"
     inkscape:zoom="0.1475"
     inkscape:cx="852.51376"
     inkscape:cy="2026.8782"
     inkscape:window-x="0"
     inkscape:window-y="20"
     inkscape:window-maximized="0"
     inkscape:current-layer="layer5" />
  <g
     inkscape:groupmode="layer"
     id="layer6"
     inkscape:label="ply"
     style="display:inline"
     transform="translate(0,1468.1001)">
    <g
       transform="translate(1211.2199,-1582.8647)"
       id="g5450">
      <rect
         y="121.45793"
         x="-1822.8103"
         height="1197.8447"
         width="2397.8447"
         id="rect5424"
         style="opacity:0.72399998;fill:none;fill-opacity:0.08018871;stroke:#000000;stroke-width:1;stroke-miterlimit:4;stroke-dasharray:none;stroke-dashoffset:37.79526138;stroke-opacity:1" />
      <rect
         y="2517.1475"
         x="-1822.8103"
         height="1197.8447"
         width="2397.8447"
         id="rect5424-6"
         style="opacity:0.72399998;fill:none;fill-opacity:0.08018871;stroke:#000000;stroke-width:1;stroke-miterlimit:4;stroke-dasharray:none;stroke-dashoffset:37.79526138;stroke-opacity:1" />
      <rect
         y="1319.3026"
         x="-1822.8103"
         height="1197.8447"
         width="2397.8447"
         id="rect5424-7"
         style="opacity:0.72399998;fill:none;fill-opacity:0.08018871;stroke:#000000;stroke-width:1;stroke-miterlimit:4;stroke-dasharray:none;stroke-dashoffset:37.79526138;stroke-opacity:1" />
    </g>
  </g>
  <g
     inkscape:groupmode="layer"
     id="layer4"
     inkscape:label="sides2"
     style="display:inline"
     transform="translate(0,1468.1001)">
    <g
       id="g5771"
       transform="translate(610.16949,-1050.8475)">
      <path
         style="fill:none;stroke:#008000"
         inkscape:connector-curvature="0"
         id="path5693"
         d="m 294.66246,1302.4779 19.4206,20.6 24.9,26.6 24.9,27.2 91.4,16 92.7,16.2 63.8,11.1 30.8,5 96.4,15.5 96.4,-15.5 30.8,-5 63.79999,-11.1 92.70005,-16.2 91.4,-16 24.9,-27.2 24.9,-26.6 19.4206,-20.6 z"
         label="Station:0.2"
         strokeWidth="1px" />
      <path
         style="fill:none;stroke:#008000"
         inkscape:connector-curvature="0"
         id="path5699"
         d="m -29.792343,1404.6611 -18.6907,-12.9 -32.1,-22.5 -31.700027,-22.3 -26.7,-8.6 -34.4,-10.9 -58.09997,-19.2 -55.2,-19 -52.3,-19 -52.3,19 -55.2,19 -58.1,19.2 -34.4,10.9 -26.7,8.6 -31.7,22.3 -32.1,22.5 -18.6907,12.9 z"
         label="Station:1.95"
         strokeWidth="1px" />
      <path
         style="fill:none;stroke:#ff0000"
         inkscape:connector-curvature="0"
         id="path5703"
         d="m -274.30508,1237.8983 161,18 170.999998,13 175.000002,7 h 171 l 161,-8 145,-16 134,-23 128,-28 124.99998,-29 -2,-80 -1,-81 -2,-80 -1,-81 -95.99998,-5 -101,-4 -111,-4 -129,-2 -154,-1 h -170 -178 l -176.000002,1 -166.999998,1 h -155 l -144,2 -130,3 -116,4 -108,7 -101,7 -98.00002,9 -13,37 -13,38 -14,37 -15,37 96,37 98.00002,37 104,36 113,34 126,29 138,26 z"
         label="Layer 2 (SB)"
         strokeWidth="1px" />
      <path
         style="fill:none;stroke:#ff0000"
         inkscape:connector-curvature="0"
         id="path5711"
         d="m 224.67797,1763.4747 -162.000001,-5 -170.999999,-7 -175,-9 -170,-10 -161,-8 -146,-6 -136,-5 -130.99997,-2 -128,-3 -1,30 -1,31 -1,30 -1,30 145,19 144.99997,19 149,18 155,16 163,13 168,11 168.999999,7 164.999999,5 157.000002,3 148,-1 138,-5 128,-10 120,-15 113,-19 109.00003,-22 107,-23 -10,-33 -10,-33 -11,-32 -10,-33 -102.00003,14 -104,13 -110,11 -117,8 -129,5 -141,1 z"
         label="Layer 7 (P)"
         strokeWidth="1px" />
      <path
         style="fill:none;stroke:#ff0000"
         inkscape:connector-curvature="0"
         id="path5713"
         d="m 490.40682,1669.3024 163,-2 161,-2 161.00001,-3 159.99997,-2 v -30 l 1,-29 1,-29 1,-29 -144.99997,-18 -146.00001,-17 -149,-14 -155,-12 -164,-8 -168,-5 -168.999988,-2 -166.000012,1 -156,3 -148,4 -138,7 -129.00005,8 -120,8 -113.9999,8 -111.00017,7 -109.9999,5 -7,31 -8,31 -8,31 -8,30 106,6 108.00007,5 111.9999,4 119,4 128.00005,3 137,3 146,3 153,2 162.0000121,1 H 156.40682 l 168,-1 z"
         label="Layer 0 (SB)"
         strokeWidth="1px" />
      <path
         style="fill:none;stroke:#ff0000"
         inkscape:connector-curvature="0"
         id="path5715"
         d="m -1206.7797,1447.2034 529.00004,1 -12,-30 -36,-88 -64,-80 -22,-27 -32,-23 -98,-68 -130.00004,90 -22,27 -64,80 -25,59 -12,29 z"
         label="Layer 5 part 2"
         strokeWidth="1px" />
    </g>
  </g>
  <g
     inkscape:groupmode="layer"
     id="layer3"
     inkscape:label="sides1"
     style="display:inline"
     transform="translate(0,1468.1001)">
    <g
       id="g5778"
       transform="translate(610.16949,-1050.8475)">
      <path
         style="fill:none;stroke:#008000"
         inkscape:connector-curvature="0"
         id="path5697"
         d="m 1142.7555,69.06778 -2.1454,-7.4 -0.2,-0.6 -14,-46.5 -35.4,-26.4 -35.4,-26.2 -35.3,-26.2 -35.29993,-26.1 -99.6,-14.5 -97.8,-15.3 -96.3,-16 -94.7,-16.8 -94.7,16.8 -96.3,16 -97.8,15.3 -99.6,14.5 -35.3,26.1 -35.3,26.2 -35.4,26.2 -35.400002,26.4 -14,46.5 -0.2,0.6 -2.1454,7.4 z"
         label="Station:1.4"
         strokeWidth="1px" />
      <path
         style="fill:none;stroke:#ff0000"
         inkscape:connector-curvature="0"
         id="path5701"
         d="m 505.67797,-362.9322 163,2 161,2 161,2 160.00003,3 v 29 l 1,30 1,29 1,29 -145,17 -146.00003,17 -149,15 -155,12 -164,8 -168,5 -169.000001,2 -165.999999,-1 -156,-3 -148,-5 -138,-6 -129,-8 -120,-8 -114,-8 -110.99997,-7 -110,-5 -7,-31 -8,-31 -8,-31 -8,-31 106,-5 107.99997,-5 112,-4 119,-4 128,-3 137,-4 146,-2 153,-2 161.999999,-1 H 171.67797 l 168,1 z"
         label="Layer 0 (P)"
         strokeWidth="1px" />
      <path
         style="fill:none;stroke:#ff0000"
         inkscape:connector-curvature="0"
         id="path5705"
         d="m -294.64407,343.08474 161,-17 171.000004,-14 175.000006,-7 h 170.99999 l 161,8 145,17 134,23 128,27 124.99997,29 -2,81 -1,80 -2,81 -1,80 -95.99997,5 -101,5 -111,3 -129,2 -154,1 h -170 -177.99999 l -176.000006,-1 H -211.64407 l -155,-1 -144,-2 -130,-2 -116,-5 -107.99997,-6 -101,-8 -97.99996,-8 -13,-38 -13,-38 -14,-37 -15,-36 96,-38 97.99996,-37 103.99997,-36 113,-33 126,-30 138,-26 z"
         label="Layer 2 (P)"
         strokeWidth="1px" />
      <path
         style="fill:none;stroke:#ff0000"
         inkscape:connector-curvature="0"
         id="path5707"
         d="m -1195.2203,-133.66102 10,28 20,55 10,27 23,20 46,39 24,19 157.99996,29 159,28 238,-42 79,-14 47,-39 46,-39 40,-110 -338,-1 z"
         label="Layer 5 part 1"
         strokeWidth="1px" />
      <path
         style="fill:none;stroke:#ff0000"
         inkscape:connector-curvature="0"
         id="path5709"
         d="m 265.35594,272.1356 -162,5 -171.000002,8 -174.999998,9 -170,9 -161.00001,9 -145.99999,6 -136,4 -131,3 -128.00004,3 -1,-31 -1,-30 -1,-30 -1,-31 145.00004,-19 145,-18 149,-18 154.99999,-16 163.00001,-13 168,-11 168.999998,-8 165.000002,-5.000003 157,-2 147.99996,1 138,5.000003 128,10 120,15 113,19 109,22 107,23 -10,33 -10,33 -11,32 -10,33 -102,-14 -104,-13 -110,-11 -117,-8 -129,-5 -140.99996,-1 z"
         label="Layer 7 (SB)"
         strokeWidth="1px" />
    </g>
  </g>
  <g
     inkscape:groupmode="layer"
     id="layer5"
     inkscape:label="thick"
     style="display:inline"
     transform="translate(0,1468.1001)">
    <g
       id="g5817">
      <path
         style="fill:none;stroke:#008000"
         inkscape:connector-curvature="0"
         id="path5695"
         d="m -596.00801,1307.7322 h -4.7327 l 15.1,-48.7 15,-48.7 14.9,-48.7 14.7,-48.7 34.6,-28 34.7,-27.9 23.8,-19.2 10.9,-8.5 35.1,-27.3 105.90003,-11.5 104.5,-12.2 103.2,-12.9 101.9,-13.6 101.9,13.6 103.2,12.9 104.5,12.2 105.9,11.5 35.1,27.3 10.9,8.5 23.8,19.2 34.7,27.9 34.6,28 14.7,48.7 14.9,48.7 15,48.7 15.1,48.7 h -4.7327 l -114.7112,-24.2382 v 0 l -80.5561,-104.5618 h -828.60003 l -80.5561,104.5618 z"
         label="Station:1.2"
         strokeWidth="1px" />
      <path
         style="fill:none;stroke:#ffa500"
         inkscape:connector-curvature="0"
         id="path5717"
         d="m -552.24688,1904.305 38.1909,74.8 7.4,12.7 49.7,81.2 24.8,37.3 h 75.6 80.1 93.4 101.7 101.7 93.4 80.1 75.6 l 24.8,-37.3 49.7,-81.2 7.4,-12.7 38.1909,-74.8 z"
         label="undefined"
         strokeWidth="1px" />
      <path
         style="fill:none;stroke:#000000"
         inkscape:connector-curvature="0"
         id="path5719"
         d="m 329.29468,1679.1864 h -724.26739 v 0 6 h -199.3814 l 4.5151,43.8 23.7,152 0.9065,4.2 H 524.55458 v 0 l 0.9064,-4.2 23.7,-152 4.5152,-43.8 h -224.3815 z"
         label="undefined"
         strokeWidth="1px" />
      <path
         style="fill:none;stroke:#ffa500"
         inkscape:connector-curvature="0"
         id="path5721"
         d="m 338.53034,1198.2372 -29.8015,33.2 -18.7,18.4 -60.6,61.3 -9.8,9.5 -65.2,64.7 -0.8,0.7 h -20.5 -27.6 l -36.1,0.1 h -14.6 -31.1 v 0 h -31.1 -14.6 l -36.1,-0.1 h -27.6 -20.5 l -0.8,-0.7 -65.2,-64.7 -9.8,-9.5 -60.6,-61.3 -18.7,-18.4 -29.8016,-33.2 z"
         label="undefined"
         strokeWidth="1px" />
      <path
         style="fill:none;stroke:#008000"
         inkscape:connector-curvature="0"
         id="path5695-2"
         d="m 724.75878,1305.2081 h 4.7327 l -15.1,48.7 -15,48.7 -14.9,48.7 -14.7,48.7 -34.6,28 -34.7,27.9 -23.8,19.1999 -10.9,8.5 -35.1,27.3 -105.9,11.5 -104.5,12.2 -103.2,12.9 -101.9,13.6 -101.9,-13.6 -103.2,-12.9 -104.5,-12.2 -105.89995,-11.5 -35.1,-27.3 -10.9,-8.5 -23.8,-19.1999 -34.70004,-27.9 -34.6,-28 -14.7,-48.7 -14.9,-48.7 -15,-48.7 -15.1,-48.7 h 4.7327 l 114.71124,24.2382 v 0 l 80.5561,104.5618 h 828.59995 l 80.5561,-104.5618 z"
         label="Station:1.2"
         strokeWidth="1px" />
    </g>
  </g>
</svg>
