<svg viewBox="-616.5 -2.1 2319 2131.9" xmlns="http://www.w3.org/2000/svg">
<path fill="none" stroke="green" strokeWidth="1px" label="Station:0.2" d="M 474.3600461893764 200L 474.2 199.3L 449.6 180.60000000000002L 424.8 161.3L 400 141.4L 375 120.89999999999999L 283.7 106.5L 190.89999999999998 91.7L 127.2 81.4L 96.4 76.7L 0 61.800000000000004L -96.4 76.7L -127.2 81.4L -190.89999999999998 91.7L -283.7 106.5L -375 120.89999999999999L -400 141.4L -424.8 161.3L -449.6 180.60000000000002L -474.2 199.3L -474.3600461893764 200L 474.3600461893764 200 Z"/>
<path fill="none" stroke="green" strokeWidth="1px" label="Station:1.2" d="M -416.5 353.8L -616.5 353.8L -601 305L -585.4 256.29999999999995L -570 207.7L -554.6 159L -521.2 131.1L -487.70000000000005 103.3L -464.7 84.2L -454.2 75.7L -420.3 48.4L -313.09999999999997 36.7L -207.4 24.400000000000002L -103 11.4L 0 -2.1L 103 11.4L 207.4 24.400000000000002L 313.09999999999997 36.7L 420.3 48.4L 454.2 75.7L 464.7 84.2L 487.70000000000005 103.3L 521.2 131.1L 554.6 159L 570 207.7L 585.4 256.29999999999995L 601 305L 616.5 353.8L 416.5000000000001 353.8L 416.50000000000006 200L -416.50000000000006 200L -416.5 353.8 Z"/>
<path fill="none" stroke="green" strokeWidth="1px" label="Station:1.4" d="M 539.7468822170902 200L 529.8000000000001 170.5L 495.40000000000003 144L 461.1 117.5L 426.70000000000005 91.2L 392.5 64.9L 291.8 50.6L 192.8 35.4L 95.60000000000001 19.599999999999998L 0 3L -95.60000000000001 19.599999999999998L -192.8 35.4L -291.8 50.6L -392.5 64.9L -426.70000000000005 91.2L -461.1 117.5L -495.40000000000003 144L -529.8000000000001 170.5L -539.7468822170902 200L 539.7468822170902 200 Z"/>
<path fill="none" stroke="green" strokeWidth="1px" label="Station:1.95" d="M 273.40357142857147 200L 258.5 189.6L 226.8 167.2L 200.1 158.70000000000002L 165.7 147.79999999999998L 107.5 128.6L 52.3 109.60000000000001L 0 90.6L -52.3 109.60000000000001L -107.5 128.6L -165.7 147.79999999999998L -200.1 158.70000000000002L -226.8 167.2L -258.5 189.6L -273.40357142857147 200L 273.40357142857147 200 Z"/>
<path fill="none" stroke="red" strokeWidth="1px" label="Layer 0 (P)" d="M 9 76L 0 46L 106 35L 214 26L 326 18L 445 12L 573 7L 710 4L 857 2L 1012 1L 1174 0L 1341 0L 1509 1L 1675 2L 1838 4L 1999 6L 2159 8L 2319 9L 2319 51L 2319 92L 2319 133L 2319 174L 2176 181L 2031.0000000000002 187L 1882 193L 1728 197L 1565 201L 1396 204L 1227 205L 1062 205L 905 202L 757 197L 619 192L 490 185L 370 180L 256 175L 144 171L 35 168L 26 137L 18 107L 9 76 Z"/>
<path fill="none" stroke="red" strokeWidth="1px" label="Layer 2 (SB)" d="M 154 23L 255 15L 362 9L 479 5L 609 3L 752 1L 908 1L 1074 0L 1251 0L 1429 0L 1599 0L 1752 2L 1881 5L 1993 8L 2094 13L 2189 18L 2189 98L 2189 178L 2188 258L 2188 338L 2066 368L 1940 396L 1807 419L 1663 436L 1502 445L 1331 446L 1156 439L 985 426L 824 407L 675 384L 537 357L 411 326L 298 292L 194 255L 96 218L 0 180L 15 143L 29 106L 43 69L 55 31L 154 23 Z"/>
<path fill="none" stroke="red" strokeWidth="1px" label="Layer 2 (P)" d="M 154 423L 255 430L 362 436L 479 441L 609 443L 752 444L 908 445L 1074 445L 1251 445L 1429 446L 1599 445L 1752 444L 1881 441L 1993 437L 2094 432L 2189 427L 2189 347L 2189 267L 2188 187L 2188 107L 2066 78L 1940 50L 1807 26L 1663 9L 1502 1L 1331 0L 1156 7L 985 20L 824 38L 675 61L 537 89L 411 120L 298 154L 194 190L 96 228L 0 266L 15 302L 29 339L 43 377L 55 414L 154 423 Z"/>
<path fill="none" stroke="red" strokeWidth="1px" label="Layer 7 (SB)" d="M 2260 136L 2271 103L 2163 79L 2055 56L 1942 36L 1823 20L 1694 9L 1556 2L 1408 0L 1252 1L 1086 3L 917 10L 749 20L 586 35L 433 55L 287 80L 144 107L 3 134L 3 160L 2 186L 1 212L 0 237L 126 227L 254 218L 389 210L 534 201L 695 193L 866 186L 1040 180L 1212 175L 1374 173L 1525 173L 1666 177L 1795 183L 1913 193L 2021.9999999999998 205L 2126 219L 2228 234L 2239 201L 2249 168L 2260 136 Z"/>
<path fill="none" stroke="red" strokeWidth="1px" label="Layer 7 (P)" d="M 2260 102L 2271 134L 2163 158L 2055 181L 1942 201L 1823 218L 1694 229L 1556 235L 1408 237L 1252 237L 1086 234L 917 228L 749 218L 586 203L 433 182L 287 158L 144 131L 3 103L 3 77L 2 52L 1 26L 0 0L 126 10L 254 19L 389 28L 534 36L 695 44L 866 52L 1040 58L 1212 62L 1374 65L 1525 64L 1666 61L 1795 54L 1913 45L 2021.9999999999998 32L 2126 19L 2228 4L 2239 36L 2249 69L 2260 102 Z"/>
<path fill="none" stroke="red" strokeWidth="1px" label="Layer 0 (SB)" d="M 9 129L 0 159L 106 170L 214 179L 326 187L 445 193L 573 198L 710 201L 857 203L 1012 204L 1174 205L 1341 205L 1509 204L 1675 203L 1838 201L 1999 199L 2159 197L 2319 196L 2319 154L 2319 113L 2319 72L 2319 31L 2176 24L 2031.0000000000002 18L 1882 12L 1728 8L 1565 4L 1396 1L 1227 0L 1062 0L 905 3L 757 8L 619 13L 490 20L 370 25L 256 30L 144 34L 35 37L 26 68L 18 98L 9 129 Z"/>
<path fill="none" stroke="red" strokeWidth="1px" label="Layer 5 part 2" d="M 265 0L 298 23L 330 46L 363 68L 395 91L 417 118L 438 145L 459 172L 481 198L 493 228L 505 257L 517 286L 529 316L 463 315L 397 315L 331 315L 264 314L 265 236L 265 157L 265 79L 265 0L 265 0L 233 23L 200 45L 167 68L 135 90L 113 117L 92 144L 70 171L 49 197L 37 227L 24 256L 12 285L 0 315L 66 315L 132 314L 198 314L 264 314L 265 236L 265 157L 265 79L 265 0 Z"/>
<path fill="none" stroke="red" strokeWidth="1px" label="Layer 5 part 1" d="M 292 20L 371 10L 451 0L 451 61L 450 122L 450 184L 450 245L 337 245L 225 244L 112 244L 0 244L 10 204L 20 164L 30 124L 40 84L 63 73L 87 62L 110 51L 133 40L 213 30L 292 20L 609 21L 530 10L 451 0L 451 61L 450 122L 450 184L 450 245L 562 245L 675 246L 787 246L 900 246L 890 206L 880 166L 871 126L 861 86L 838 75L 814 64L 791 53L 768 41L 689 31L 609 21 Z"/>
<path fill="none" stroke="orange" strokeWidth="1px" label="undefined" d="M 480.733011789925 206.00000000000003L 410.3 0L 0 0L 0 0L -410.3 0L -480.733011789925 206.00000000000003L 480.733011789925 206.00000000000003 Z"/>
<path fill="none" stroke="black" strokeWidth="1px" label="undefined" d="M 574.9044362292052 1206L 570.5 1250.3999999999999L 547.6 1402.8L 546.918811881188 1406L -546.918811881188 1406L -547.6 1402.8L -570.5 1250.3999999999999L -574.9044362292052 1206L -574.9044362292052 1206L -375.4996303142329 1206L -375.4996303142329 1200L 375.4996303142329 1200L 375.4996303142329 1206L 574.9044362292052 1206 Z"/>
<path fill="none" stroke="orange" strokeWidth="1px" label="undefined" d="M 306.0565415244597 1954L 285.1 1977.2L 130.70000000000002 2131.1L 129.89999999999998 2131.8L 0 2131.9L -129.89999999999998 2131.8L -130.70000000000002 2131.1L -285.1 1977.2L -306.0565415244597 1954L 306.0565415244597 1954 Z"/>
</svg>
