<svg viewBox="0 0 2336 484" xmlns="http://www.w3.org/2000/svg">
<path fill="none" stroke="red" strokeWidth="1px" label="Station:1.3" d="M 580.4 361.5L 547.8 284.8L 514.9 208.4L 481.70000000000005 132.20000000000002L 448.2 56.300000000000004L 334.1 43.2L 221.4 29.4L 112.9 15.299999999999999L 110.10000000000001 14.9L 0 0.2 Z"/>
<path fill="none" stroke="red" strokeWidth="1px" label="Station:1.5" d="M 551.4 376L 516.2 301.3L 480.6 227L 444.6 153.2L 418.8 101L 407.9 80.19999999999999L 303.8 62.8L 201.3 45L 100 26.599999999999998L 0 7.7 Z"/>
<path fill="none" stroke="red" strokeWidth="1px" label="Station:2" d="M 412.4 425.20000000000005L 367.8 362.8L 323 302.3L 307.09999999999997 281.4L 277.2 244.2L 230.9 188.70000000000002L 171 166.3L 112.5 144.2L 55.4 122.30000000000001L 0 100.8 Z"/>
<path fill="none" stroke="red" strokeWidth="1px" label="Layer 0 (P)" d="M 5 126L 10 184L 14 241L 17 298L 167 308L 319 317L 474 325L 634 330L 803 332L 976 334L 1149 334L 1318 334L 1477 335L 1626 336L 1766 334L 1895 331L 2015.0000000000002 324L 2126 314L 2232 302L 2336 289L 2313 223L 2289 157L 2266 90L 2243 24L 2141 23L 2036 21L 1925 18L 1806 15L 1674 11L 1533 7L 1385 3L 1232 1L 1076 0L 919 2L 762 7L 607 15L 454 27L 303 40L 151 55L 0 69L 5 126 Z"/>
<path fill="none" stroke="red" strokeWidth="1px" label="Layer 2 (SB)" d="M 2196 181L 2197 101L 2197 21L 2101 15L 2001 10L 1889 5L 1760 2L 1606 1L 1435 0L 1254 0L 1071 0L 893 0L 726 1L 573 2L 438 4L 326 8L 229 15L 143 23L 61 31L 47 77L 32 123L 17 168L 0 212L 96 247L 195 282L 300 316L 414 351L 542 384L 679 417L 824 445L 976 467L 1131 480L 1288 484L 1445 479L 1600 465L 1752 441L 1901 411L 2049 377L 2196 341L 2196 261L 2196 181 Z"/>
<path fill="none" stroke="red" strokeWidth="1px" label="Layer 2 (P)" d="M 2196 303L 2197 383L 2197 463L 2101 469L 2001 474L 1889 479L 1760 482L 1606 483L 1435 484L 1254 484L 1071 484L 893 484L 726 483L 573 482L 438 480L 326 476L 229 469L 143 461L 61 453L 47 407L 32 361L 17 316L 0 272L 96 237L 195 202L 300 168L 414 133L 542 99L 679 67L 824 39L 976 17L 1131 4L 1288 0L 1445 5L 1600 19L 1752 43L 1901 73L 2049 107L 2196 143L 2196 223L 2196 303 Z"/>
<path fill="none" stroke="red" strokeWidth="1px" label="Layer 5 part 1" d="M 833 99L 800 146L 766 193L 687 202L 607 212L 528 221L 449 231L 449 174L 449 117L 450 60L 450 2L 563 3L 675 4L 788 5L 900 6L 867 52L 833 99L 66 94L 99 142L 132 189L 211 199L 290 210L 369 220L 449 231L 449 174L 449 117L 450 60L 450 2L 338 2L 225 1L 113 1L 0 0L 33 47L 66 94 Z"/>
<path fill="none" stroke="red" strokeWidth="1px" label="Layer 0 (SB)" d="M 5 209L 10 152L 14 95L 17 37L 167 27L 319 18L 474 11L 634 6L 803 3L 976 2L 1149 2L 1318 1L 1477 0L 1626 0L 1766 1L 1895 5L 2015.0000000000002 12L 2126 22L 2232 34L 2336 46L 2313 113L 2289 179L 2266 245L 2243 311L 2141 313L 2036 315L 1925 317L 1806 321L 1674 325L 1533 329L 1385 332L 1232 335L 1076 336L 919 334L 762 329L 607 321L 454 309L 303 295L 151 281L 0 267L 5 209 Z"/>
<path fill="none" stroke="red" strokeWidth="1px" label="Layer 5 part 2" d="M 300 0L 300 86L 300 173L 300 259L 300 346L 375 345L 450 345L 525 345L 600 344L 566 283L 532 222L 498 160L 464 99L 423 74L 382 49L 341 25L 300 86L 300 173L 300 259L 300 346L 225 345L 150 345L 75 345L 0 344L 34 283L 68 221L 102 160L 136 99L 177 74L 218 49L 259 25L 300 0 Z"/>
</svg>
